Coordinates
version=1
nRows=4
nColumns=124
inDegrees=yes

Units are S.I. units (second, meters, Newtons, ...)
If the header above contains a line with 'inDegrees', this indicates whether rotational values are in degrees (yes) or radians (no).

endheader 
time	pelvis_tilt	pelvis_list	pelvis_rotation	pelvis_tx	pelvis_ty	pelvis_tz	hip_flexion_l	hip_adduction_l	hip_rotation_l	hip_flexion_r	hip_adduction_r	hip_rotation_r	knee_angle_l	knee_angle_r	ankle_angle_l	ankle_angle_r	subtalar_angle_l	subtalar_angle_r	mtp_angle_l	mtp_angle_r	lumbar_extension	lumbar_bending	lumbar_rotation	arm_flex_l	arm_add_l	arm_rot_l	arm_flex_r	arm_add_r	arm_rot_r	elbow_flex_l	elbow_flex_r	glut_med1_l/activation	glut_med2_l/activation	glut_med3_l/activation	glut_min1_l/activation	glut_min2_l/activation	glut_min3_l/activation	semimem_l/activation	semiten_l/activation	bifemlh_l/activation	bifemsh_l/activation	sar_l/activation	add_long_l/activation	add_brev_l/activation	add_mag1_l/activation	add_mag2_l/activation	add_mag3_l/activation	tfl_l/activation	pect_l/activation	grac_l/activation	glut_max1_l/activation	glut_max2_l/activation	glut_max3_l/activation	iliacus_l/activation	psoas_l/activation	quad_fem_l/activation	gem_l/activation	peri_l/activation	rect_fem_l/activation	vas_med_l/activation	vas_int_l/activation	vas_lat_l/activation	med_gas_l/activation	lat_gas_l/activation	soleus_l/activation	tib_post_l/activation	flex_dig_l/activation	flex_hal_l/activation	tib_ant_l/activation	per_brev_l/activation	per_long_l/activation	per_tert_l/activation	ext_dig_l/activation	ext_hal_l/activation	ercspn_l/activation	intobl_l/activation	extobl_l/activation	glut_med1_r/activation	glut_med2_r/activation	glut_med3_r/activation	glut_min1_r/activation	glut_min2_r/activation	glut_min3_r/activation	semimem_r/activation	semiten_r/activation	bifemlh_r/activation	bifemsh_r/activation	sar_r/activation	add_long_r/activation	add_brev_r/activation	add_mag1_r/activation	add_mag2_r/activation	add_mag3_r/activation	tfl_r/activation	pect_r/activation	grac_r/activation	glut_max1_r/activation	glut_max2_r/activation	glut_max3_r/activation	iliacus_r/activation	psoas_r/activation	quad_fem_r/activation	gem_r/activation	peri_r/activation	rect_fem_r/activation	vas_med_r/activation	vas_int_r/activation	vas_lat_r/activation	med_gas_r/activation	lat_gas_r/activation	soleus_r/activation	tib_post_r/activation	flex_dig_r/activation	flex_hal_r/activation	tib_ant_r/activation	per_brev_r/activation	per_long_r/activation	per_tert_r/activation	ext_dig_r/activation	ext_hal_r/activation	ercspn_r/activation	intobl_r/activation	extobl_r/activation	
          0.26240252	         -5.23963121	         -3.83796108	         -4.41049875	          0.35139945	          0.92130731	          0.01227569	         17.50393203	         -0.35478800	          1.43753084	          5.99301764	          6.97800855	          4.58939730	        -60.36998657	         -1.05525062	         12.43898453	          1.09543289	          2.76983581	        -28.22905850	          3.42214655	          1.18551748	          0.29300599	          8.61736612	         -3.95395754	          2.40598156	        -13.46494420	         19.33222892	         -9.83725104	        -13.87853250	         -2.32636723	         81.73893585	         21.30869986	          0.05000613	          0.05000625	          0.05000555	          0.14342254	          0.05005026	          0.05003134	          0.05002370	          0.05000297	          0.05000177	          0.58855550	          0.31687206	          0.17860979	          0.08942137	          0.05001033	          0.05000816	          0.05000232	          0.55233531	          0.36436146	          0.14966086	          0.05000724	          0.05000276	          0.05000179	          0.13416517	          0.14559852	          0.05003454	          0.08655004	          0.05001126	          0.07358318	          0.05000298	          0.05000282	          0.05000224	          0.05000195	          0.05000317	          0.05000054	          0.05000290	          0.05001540	          0.05001116	          0.38150976	          0.21513428	          0.06133429	          0.70885806	          0.48337026	          0.71679543	          0.11219314	          0.15599070	          0.05000445	          0.30945023	          0.24115243	          0.25817049	          0.65507356	          0.61846622	          0.61132056	          0.13407168	          0.14778084	          0.06230648	          0.67484850	          0.05007062	          0.05000760	          0.05000869	          0.05006295	          0.06714950	          0.05647971	          0.18369989	          0.05004275	          0.05003820	          0.19546020	          0.09724328	          0.05013633	          0.05000763	          0.05001709	          0.05001197	          0.05009366	          0.66080779	          0.05000642	          0.05583914	          0.05444421	          0.05005894	          0.05056821	          0.05056802	          0.05056847	          0.05056546	          0.05056683	          0.05056772	          0.05056927	          0.05056940	          0.05056920	          0.05056913	          0.05056918	          0.05056896	          0.09093171	          0.05000191	          0.05000368	
          0.30613627	         -5.22010213	         -3.06597796	         -6.97120776	          0.40185142	          0.92175742	          0.01663996	         25.37101292	         -0.39858119	          0.00735193	         -0.23717891	          5.63672193	          5.36026825	        -58.97591835	          4.35186455	         15.63233944	          1.56563044	          0.09956604	        -25.19999820	          1.85100976	          1.79465763	          0.39824931	          8.19013041	         -3.18089416	          4.29023853	        -13.46627742	         19.31481845	         -5.60429302	        -13.54617200	         -4.43750999	         71.18993887	         34.49978111	          0.05008338	          0.05000789	          0.05000386	          0.22389633	          0.09858278	          0.05002985	          0.05000484	          0.05000305	          0.05000157	          0.35034536	          0.23809436	          0.15882342	          0.05174713	          0.05001246	          0.05000873	          0.05000299	          0.39566171	          0.23764254	          0.08656840	          0.05000612	          0.05000259	          0.05000201	          0.13731536	          0.14184282	          0.05000741	          0.05010007	          0.32336874	          0.05002317	          0.05001150	          0.05001091	          0.05000796	          0.05000227	          0.05000472	          0.05000090	          0.05000600	          0.05003050	          0.05002217	          0.42055539	          0.25478932	          0.11613026	          0.57584505	          0.42743620	          0.55937396	          0.07670402	          0.15342903	          0.05000514	          0.24088866	          0.29020525	          0.36040404	          0.49795966	          0.63840912	          0.64283678	          0.17850572	          0.21546412	          0.10054516	          0.91695569	          0.20469122	          0.05000628	          0.05000844	          0.05004843	          0.05006658	          0.05001976	          0.20656211	          0.05003528	          0.05005927	          0.11399853	          0.08580756	          0.05004574	          0.11387697	          0.39810470	          0.05010579	          0.29031421	          0.75636953	          0.05000242	          0.05003695	          0.05003461	          0.05003800	          0.05056794	          0.05056773	          0.05056857	          0.05056547	          0.05056690	          0.05056777	          0.05056919	          0.05056949	          0.05056926	          0.05056913	          0.05056915	          0.05056891	          0.05267218	          0.05000319	          0.05000667	
          0.34987003	         -5.31644587	         -2.54641490	         -9.57394082	          0.45282554	          0.91779114	          0.02075934	         31.69792696	         -1.68895437	         -1.08061018	         -5.61626376	          4.33905962	          4.22092108	        -53.48022756	          8.37743285	         15.95866658	          2.70043562	         -2.50519505	        -20.48853897	          0.99941080	          3.06668196	          0.54999569	          8.04103771	         -2.18998201	          5.36551646	        -13.48436161	         19.20710881	         -0.55489602	        -13.46391683	         -1.47137767	         60.27842274	         46.44684372	          0.05001130	          0.05002351	          0.05004806	          0.12951486	          0.05711255	          0.09685212	          0.05000288	          0.05000313	          0.05000175	          0.30276957	          0.34973214	          0.09186800	          0.05000903	          0.05000746	          0.05000620	          0.05000288	          0.32756206	          0.13748344	          0.05007667	          0.05001316	          0.05000534	          0.05000273	          0.20578141	          0.21101316	          0.05004964	          0.29466787	          0.26356270	          0.05000610	          0.05000568	          0.05000505	          0.05000308	          0.05000614	          0.05001203	          0.05000293	          0.05001221	          0.05004965	          0.05004418	          0.39663281	          0.27554904	          0.15101048	          0.35129353	          0.43328118	          0.32403081	          0.06270044	          0.21079894	          0.05750155	          0.37167180	          0.29181257	          0.28614821	          0.51213200	          0.73199306	          0.86527064	          0.20361969	          0.24577872	          0.13537929	          0.97878592	          0.27027010	          0.05000789	          0.05000969	          0.05003257	          0.05007911	          0.05001863	          0.27341906	          0.05004615	          0.05022122	          0.06598192	          0.05003174	          0.05001889	          0.19851745	          0.47893043	          0.39513486	          0.56747525	          0.93687995	          0.05000171	          0.05002915	          0.05002734	          0.05002416	          0.05056773	          0.05056755	          0.05056867	          0.05056569	          0.05056726	          0.05056803	          0.05056927	          0.05056929	          0.05056905	          0.05056899	          0.05056907	          0.05056890	          0.05000190	          0.05000414	          0.05000549	
          0.39360378	         -5.54031586	         -2.17632454	        -11.98036657	          0.50513188	          0.91097598	          0.02427541	         36.41268038	         -3.72473205	         -1.87587674	         -9.67790033	          3.14221786	          1.36711783	        -45.70235656	          9.96142580	         14.12237311	          4.94495506	         -5.00848378	        -13.94418876	          0.56625817	          5.30037156	          0.73632029	          7.93109490	         -0.96714135	          5.54064469	        -13.52730191	         19.21328954	          5.51561641	        -13.56828534	          3.97273259	         49.93234145	         55.07578880	          0.05001370	          0.05003279	          0.13794471	          0.07493144	          0.05891395	          0.20378878	          0.05000101	          0.05000220	          0.05000114	          0.35408141	          0.44750619	          0.05313934	          0.05000448	          0.05000370	          0.05000339	          0.05000196	          0.25178451	          0.07954933	          0.05000706	          0.05001366	          0.05000486	          0.05000193	          0.26478525	          0.23390022	          0.05001662	          0.47532810	          0.41582476	          0.05001416	          0.05000493	          0.05000434	          0.05000260	          0.05001440	          0.05002623	          0.05000403	          0.05001707	          0.05006585	          0.05006404	          0.31359784	          0.26341391	          0.15860239	          0.24322899	          0.49468101	          0.18777707	          0.11216181	          0.24890330	          0.05000228	          0.30871415	          0.42484144	          0.35942434	          0.57221538	          0.88809405	          0.88165537	          0.17362293	          0.22193088	          0.13619619	          0.74989036	          0.18679824	          0.05000440	          0.05000718	          0.05002409	          0.05007088	          0.05004377	          0.33676895	          0.05002407	          0.05002208	          0.18163452	          0.15019568	          0.05469012	          0.11508142	          0.58092275	          0.57247126	          0.42059637	          0.77825277	          0.05000917	          0.05013175	          0.05012539	          0.05011943	          0.05056743	          0.05056726	          0.05056846	          0.05056596	          0.05056748	          0.05056805	          0.05056941	          0.05056924	          0.05056898	          0.05056905	          0.05056918	          0.05056904	          0.07126821	          0.05000172	          0.05000466	
